<svg xmlns="http://www.w3.org/2000/svg" width="960" height="960" viewBox="0 0 960 960">
  <path fill="#000" d="M709.0 237.0Q679.0 237.0 657.0 215.5Q635.0 194.0 635.0 163.0Q635.0 133.0 657.0 111.0Q679.0 89.0 709.0 89.0Q739.0 89.0 761.0 111.0Q783.0 133.0 783.0 163.0Q783.0 194.0 761.0 215.5Q739.0 237.0 709.0 237.0ZM664.0 871.0V556.0Q664.0 518.0 645.5 488.0Q627.0 458.0 596.0 441.0L634.0 334.0Q642.0 311.0 663.0 297.0Q684.0 283.0 709.0 283.0Q734.0 283.0 755.0 297.0Q776.0 311.0 784.0 334.0L889.0 629.0H786.0V871.0ZM489.0 459.0Q466.0 459.0 449.5 443.0Q433.0 427.0 433.0 403.5Q433.0 380.0 449.5 363.5Q466.0 347.0 489.0 347.0Q512.0 347.0 528.5 363.5Q545.0 380.0 545.0 403.5Q545.0 427.0 528.5 443.0Q512.0 459.0 489.0 459.0ZM209.0 237.0Q179.0 237.0 157.0 215.5Q135.0 194.0 135.0 163.0Q135.0 133.0 157.0 111.0Q179.0 89.0 209.0 89.0Q239.0 89.0 261.0 111.0Q283.0 133.0 283.0 163.0Q283.0 194.0 261.0 215.5Q239.0 237.0 209.0 237.0ZM134.0 871.0V599.0H71.0V362.0Q71.0 332.0 92.0 310.5Q113.0 289.0 143.0 289.0H275.0Q305.0 289.0 326.0 310.5Q347.0 332.0 347.0 362.0V599.0H284.0V871.0ZM434.0 871.0V721.0H394.0V556.0Q394.0 533.0 410.0 517.0Q426.0 501.0 449.0 501.0H529.0Q552.0 501.0 568.0 517.0Q584.0 533.0 584.0 556.0V721.0H544.0V871.0Z"/>
</svg>
