<svg xmlns="http://www.w3.org/2000/svg" width="960" height="960" viewBox="0 0 960 960">
  <path fill="#000" d="M212.0 820.0Q182.0 820.0 161.0 799.0Q140.0 778.0 140.0 748.0V212.0Q140.0 182.0 161.0 161.0Q182.0 140.0 212.0 140.0H748.0Q778.0 140.0 799.0 161.0Q820.0 182.0 820.0 212.0V748.0Q820.0 778.0 799.0 799.0Q778.0 820.0 748.0 820.0ZM212.0 760.0H748.0Q752.0 760.0 756.0 756.0Q760.0 752.0 760.0 748.0V212.0Q760.0 208.0 756.0 204.0Q752.0 200.0 748.0 200.0H212.0Q208.0 200.0 204.0 204.0Q200.0 208.0 200.0 212.0V748.0Q200.0 752.0 204.0 756.0Q208.0 760.0 212.0 760.0ZM270.0 670.0H693.0L562.0 495.0L449.0 641.0L369.0 538.0ZM200.0 760.0Q200.0 760.0 200.0 756.0Q200.0 752.0 200.0 748.0V212.0Q200.0 208.0 200.0 204.0Q200.0 200.0 200.0 200.0Q200.0 200.0 200.0 204.0Q200.0 208.0 200.0 212.0V748.0Q200.0 752.0 200.0 756.0Q200.0 760.0 200.0 760.0Z"/>
</svg>
